# xmcd
#
# Track frame offsets: 
#        150
#        12870
#        26175
#        38423
#        57647
#        76363
#        89450
#        104430
#        123537
#        144499
#        160994
#        178298
#
# Disc length: 2595 seconds
#
# Revision: 1
# Processed by: cddbd v1.5.2PL0 Copyright (c) Steve Scherf et al.
# Submitted via: ExactAudioCopy v0.99pb4
#
DISCID=a20a210c
DTITLE=Various Artist - Summertime Blues
DYEAR=2007
DGENRE=Blues
TTITLE0=Canned Heat - Wait And See
TTITLE1=Candye Kane - Crazy Little Thing
TTITLE2=Ana Popovic - The Hustle Is On
TTITLE3=Luther Allison - I Wanna Be With You
TTITLE4=Ian Parker - Your Love Is My Home
TTITLE5=Walter Trout - Highway Song
TTITLE6=Roxanne Potvin - Caught Up
TTITLE7=Aynsley Lister - Wherever I Am
TTITLE8=Larry Garner - Do Your Personal Thing
TTITLE9=Sue Foley - Show Me
TTITLE10=Eric Bibb - Livin', Lovin' An' Doin'
TTITLE11=Grayson Capps - Poison
EXTD=
EXTT0=
EXTT1=with Popa Chubby
EXTT2=
EXTT3=
EXTT4=
EXTT5=with John Mayall
EXTT6=
EXTT7=
EXTT8=
EXTT9=
EXTT10=
EXTT11=
PLAYORDER=
